HIERARCHY
ROOT RootJoint
{
    OFFSET   0.000000   0.000000   0.000000
    CHANNELS 6 Xposition Yposition Zposition Xrotation Yrotation Zrotation
    JOINT pelvis_lowerback
    {
        OFFSET   0.000000   0.093605   0.000000
        CHANNELS 3 Xrotation Yrotation Zrotation
        JOINT lowerback_torso
        {
            OFFSET   0.000000   0.100000   0.000000
            CHANNELS 3 Xrotation Yrotation Zrotation
            JOINT torso_head
            {
                OFFSET   0.000000   0.282350   0.000000
                CHANNELS 3 Xrotation Yrotation Zrotation
                End Site
                {
                    OFFSET   0.000000   0.192650   0.000000
                }
            }
            JOINT rTorso_Clavicle
            {
                OFFSET  -0.001000   0.157500   0.000000
                CHANNELS 3 Xrotation Yrotation Zrotation
                JOINT rShoulder
                {
                    OFFSET  -0.117647   0.000000   0.000000
                    CHANNELS 3 Xrotation Yrotation Zrotation
                    JOINT rElbow
                    {
                        OFFSET  -0.245000   0.000000   0.000000
                        CHANNELS 3 Xrotation Yrotation Zrotation
                        JOINT rWrist
                        {
                            OFFSET  -0.240000   0.000000   0.000000
                            CHANNELS 3 Xrotation Yrotation Zrotation
                            End Site
                            {
                                OFFSET  -0.116353  -0.002500   0.000000
                            }
                        }
                    }
                }
            }
            JOINT lTorso_Clavicle
            {
                OFFSET   0.001000   0.157500   0.000000
                CHANNELS 3 Xrotation Yrotation Zrotation
                JOINT lShoulder
                {
                    OFFSET   0.117647   0.000000   0.000000
                    CHANNELS 3 Xrotation Yrotation Zrotation
                    JOINT lElbow
                    {
                        OFFSET   0.245000   0.000000   0.000000
                        CHANNELS 3 Xrotation Yrotation Zrotation
                        JOINT lWrist
                        {
                            OFFSET   0.240000   0.000000   0.000000
                            CHANNELS 3 Xrotation Yrotation Zrotation
                            End Site
                            {
                                OFFSET   0.116353  -0.002500   0.000000
                            }
                        }
                    }
                }
            }
        }
    }
    JOINT rHip
    {
        OFFSET  -0.100000  -0.051395   0.000000
        CHANNELS 3 Xrotation Yrotation Zrotation
        JOINT rKnee
        {
            OFFSET   0.000000  -0.410000   0.000000
            CHANNELS 3 Xrotation Yrotation Zrotation
            JOINT rAnkle
            {
                OFFSET   0.000000  -0.390000   0.000000
                CHANNELS 3 Xrotation Yrotation Zrotation
                JOINT rToeJoint
                {
                    OFFSET   0.000000  -0.050000   0.130000
                    CHANNELS 3 Xrotation Yrotation Zrotation
                    End Site
                    {
                        OFFSET  -0.010000   0.002000   0.060000
                    }
                }
            }
        }
    }
    JOINT lHip
    {
        OFFSET   0.100000  -0.051395   0.000000
        CHANNELS 3 Xrotation Yrotation Zrotation
        JOINT lKnee
        {
            OFFSET   0.000000  -0.410000   0.000000
            CHANNELS 3 Xrotation Yrotation Zrotation
            JOINT lAnkle
            {
                OFFSET   0.000000  -0.390000   0.000000
                CHANNELS 3 Xrotation Yrotation Zrotation
                JOINT lToeJoint
                {
                    OFFSET   0.000000  -0.050000   0.130000
                    CHANNELS 3 Xrotation Yrotation Zrotation
                    End Site
                    {
                        OFFSET   0.010000   0.002000   0.060000
                    }
                }
            }
        }
    }
}
MOTION
Frames: 17
Frame Time:   0.008333
 -0.133019   0.836853   3.240284   1.116522  -9.316975  10.548355  17.147407  -7.398860  -2.934824  -1.302635  -7.583931   0.506727  -9.876348  -9.098280   1.138676   6.701317  -9.464130   2.941311  22.342868  -6.548704  51.797278  -0.023490  82.773066   0.033186   0.490001   4.635057 -17.230054   0.675943   2.963702  -0.593847  -6.235573  -4.791438 -44.682250 179.944236 -67.860301 179.952247   1.804202  -6.954756  17.013427 -45.358487 -12.153846  -4.886166  64.960700   0.098415   0.060779 -23.424597 -16.646548  -3.588475  -3.845839  -0.020640  -0.014558   7.714796   0.275764   3.766216  37.545581   0.013731   0.010979  -3.774289   1.815106  -3.024471 -38.451356  -0.009881   0.039109
 -0.138531   0.839265   3.257087   1.115889 -10.117442  10.726092  16.849265  -7.551709  -2.830181  -1.092204  -7.702232   0.706790  -9.731100  -9.180573   1.021725   6.998350  -9.612876   2.949793  22.320729  -6.672498  51.761105  -0.023225  82.985696   0.033045   0.372055   4.409295 -17.332009   0.877584   3.111343  -0.353133  -5.340932  -5.108723 -44.900633 179.985400 -68.608065 179.990008   1.995771  -7.855966  17.165048 -45.175578 -12.475092  -4.582745  62.407748   0.094967   0.064969 -24.314305 -16.796045  -4.422011  -3.633554  -0.017737  -0.013803   8.027047   0.195190   3.500583  39.191724   0.003522  -0.000911  -2.004050   1.620648  -2.779255 -35.238662  -0.013285   0.001682
 -0.144248   0.841147   3.274276   1.060112 -11.024822  10.959490  16.506333  -7.594329  -2.835733  -0.877048  -7.718026   0.835741  -9.591447  -9.261837   0.916767   7.228058  -9.715672   3.033791  22.257035  -6.746518  51.756791  -0.022180  83.189115   0.032028   0.257961   4.203738 -17.425517   1.226551   3.330118  -0.239210  -4.346402  -5.342469 -45.123206 -179.980361 -69.423110 -179.977805   1.995842  -8.156285  16.937405 -44.640466 -12.745231  -4.255938  60.071994   0.090443   0.068938 -25.150557 -16.930426  -5.205683  -3.461347  -0.014938  -0.012918   8.227592   0.137969   3.118395  41.090974  -0.006531  -0.012310  -0.348028   1.445607  -2.545424 -32.371380  -0.018363  -0.025272
 -0.150170   0.842466   3.291667   1.016539 -11.962353  11.222410  16.119501  -7.554018  -2.893632  -0.710936  -7.652543   0.915948  -9.468816  -9.338067   0.818955   7.421404  -9.787173   3.147241  22.180406  -6.789050  51.771861  -0.020601  83.387705   0.030346   0.160659   4.052876 -17.470499   1.623976   3.594907  -0.201162  -3.348736  -5.526821 -45.352415 -179.956624 -70.213142 -179.955361   1.913402  -8.193083  16.588417 -43.914352 -13.006606  -3.924102  57.955310   0.084943   0.071749 -25.930470 -17.051319  -5.938934  -3.300471  -0.012442  -0.012159   8.315860   0.088263   2.697802  42.930598  -0.015055  -0.020671   1.201088   1.286566  -2.322884 -29.754402  -0.024478  -0.043904
 -0.156277   0.843199   3.309142   0.994334 -12.892032  11.501383  15.707621  -7.452580  -2.981340  -0.595584  -7.529327   0.966473  -9.362329  -9.408740   0.727678   7.584880  -9.831659   3.269512  22.094446  -6.809388  51.794829  -0.018723  83.581140   0.028219   0.080069   3.952420 -17.475502   2.028597   3.881207  -0.199078  -2.384822  -5.679524 -45.575302 -179.941666 -70.960644 -179.941381   1.804025  -8.132387  16.229549 -43.064716 -13.257035  -3.597177  56.037487   0.078585   0.072933 -26.657712 -17.159898  -6.625089  -3.150987  -0.010242  -0.011427   8.295845   0.038836   2.278420  44.647532  -0.021806  -0.025883   2.647219   1.142634  -2.110808 -27.358352  -0.030883  -0.055582
 -0.162541   0.843326   3.326639   0.991654 -13.799674  11.790269  15.285068  -7.304978  -3.087001  -0.522652  -7.364331   0.997509  -9.269138  -9.474028   0.642050   7.721580  -9.852357   3.389808  22.000082  -6.813215  51.818764  -0.016724  83.768928   0.025844   0.014604   3.895437 -17.454523   2.422793   4.175218  -0.211267  -1.468819  -5.809767 -45.784423 -179.933385 -71.661916 -179.933930   1.688781  -8.038226  15.896745 -42.131299 -13.490866  -3.281774  54.296870   0.071735   0.072559 -27.335880 -17.257242  -7.267314  -3.012410  -0.008325  -0.010688   8.180297  -0.011687   1.877675  46.232542  -0.026865  -0.028525   3.996352   1.012775  -1.908834 -25.163529  -0.036879  -0.061740
 -0.168931   0.842830   3.344122   1.005353 -14.681626  12.086086  14.861601  -7.122218  -3.203162  -0.483397  -7.168656   1.014735  -9.186821  -9.534273   0.561409   7.834394  -9.852693   3.502455  21.898479  -6.804632  51.839910  -0.014735  83.950620   0.023386  -0.037428   3.875712 -17.418310   2.799365   4.469429  -0.227354  -0.605102  -5.922627 -45.977077 -179.929970 -72.317488 -179.931237   1.575374  -7.935322  15.599676 -41.142541 -13.705186  -2.981950  52.713977   0.064779   0.070911 -27.968331 -17.344363  -7.868448  -2.884006  -0.006677  -0.009944   7.984662  -0.062844   1.502650  47.690235  -0.030433  -0.029272   5.254713   0.895840  -1.716765 -23.153064  -0.041992  -0.063744
 -0.175741   0.841504   3.361309   0.797028 -15.603439  12.043862  14.657888  -6.937352  -3.179634  -0.334121  -6.952376   1.215485  -9.082240  -9.624449   0.578542   7.791700  -9.819362   3.606421  21.299865  -6.548943  51.724605  -0.014202  84.072367   0.022018  -0.133469   3.584002 -17.273616   3.153657   4.735183  -0.341341   0.740437  -5.859815 -46.039527 -179.880689 -74.045289 -179.883741   1.797865  -8.688096  15.501920 -39.742692 -13.607814  -2.265892  51.880629   0.053562   0.060329 -28.595389 -17.126336  -9.077978  -2.737438  -0.004207  -0.008341   7.262019   0.143273   1.547387  51.101846  -0.043117  -0.029753   4.632352   1.362362  -1.537799 -21.163616  -0.050215  -0.050515
 -0.182696   0.839559   3.378623   0.542079 -16.635008  11.973580  14.467529  -6.659051  -3.187852  -0.165875  -6.637136   1.402881  -8.974193  -9.715511   0.618434   7.660371  -9.710400   3.732152  20.655333  -6.253617  51.608774  -0.013546  84.201209   0.020695  -0.205158   3.374670 -17.153142   3.604016   5.040510  -0.541631   2.113906  -5.733236 -46.106298 -179.835784 -75.796849 -179.839044   1.837284  -8.769464  15.209750 -38.130146 -13.450112  -1.505747  51.355536   0.043970   0.050725 -29.172850 -16.914691 -10.207882  -2.627345  -0.002412  -0.006954   6.448862   0.361619   1.592347  54.638396  -0.056205  -0.030481   4.051938   1.803807  -1.365018 -19.464823  -0.054819  -0.040649
 -0.189748   0.837002   3.396013   0.306305 -17.708741  11.924094  14.253275  -6.307966  -3.225892  -0.029511  -6.248344   1.557461  -8.874437  -9.801283   0.659855   7.496897  -9.564365   3.866482  20.017861  -5.944729  51.506133  -0.012614  84.333832   0.019185  -0.250997   3.252041 -17.013338   4.085029   5.375402  -0.779354   3.452292  -5.582854 -46.186950 -179.801661 -77.465638 -179.804364   1.798903  -8.573789  14.840302 -36.409000 -13.281017  -0.781032  50.977169   0.036068   0.042590 -29.704556 -16.711318 -11.260167  -2.527115  -0.001018  -0.005853   5.558267   0.563136   1.621008  57.997019  -0.067373  -0.030077   3.511719   2.213612  -1.198373 -17.916503  -0.057564  -0.033107
 -0.196870   0.833806   3.413423   0.101114 -18.789471  11.902142  14.018495  -5.906277  -3.285082   0.067674  -5.812217   1.684190  -8.785473  -9.880665   0.698793   7.318336  -9.397199   3.998167  19.400480  -5.634292  51.413967  -0.011513  84.467100   0.017551  -0.277645   3.193062 -16.852380   4.566586   5.724536  -1.024914   4.730977  -5.421760 -46.272712 -179.777165 -79.034685 -179.779151   1.736102  -8.286612  14.470278 -34.629516 -13.101327  -0.112091  50.690101   0.029571   0.035722 -30.194570 -16.515845 -12.239939  -2.432111   0.000066  -0.004972   4.597834   0.744771   1.646869  61.124659  -0.075915  -0.028115   3.005300   2.594071  -1.037968 -16.504486  -0.058789  -0.026965
 -0.204036   0.829941   3.430821  -0.074378 -19.863347  11.906502  13.771378  -5.470853  -3.357624   0.130596  -5.347050   1.789106  -8.706495  -9.953784   0.734391   7.131731  -9.217080   4.120386  18.806961  -5.328652  51.328540  -0.010381  84.599137   0.015913  -0.289736   3.181661 -16.680064   5.035160   6.077661  -1.263388   5.941156  -5.256215 -46.357637 -179.759747 -80.503445 -179.761097   1.667788  -7.975393  14.130124 -32.824553 -12.908829   0.496783  50.470799   0.024224   0.029898 -30.646418 -16.328062 -13.152274  -2.341579   0.000892  -0.004256   3.582411   0.906710   1.678899  64.021043  -0.081838  -0.024934   2.529656   2.947458  -0.884004 -15.217056  -0.058779  -0.021794
 -0.211224   0.825383   3.448189  -0.222894 -20.926165  11.934752  13.519207  -5.014597  -3.437492   0.166172  -4.865848   1.876935  -8.636131 -10.021061   0.766647   6.941087  -9.029312   4.229973  18.238598  -5.031358  51.247480  -0.009329  84.728777   0.014383  -0.290325   3.207434 -16.505091   5.484923   6.428206  -1.488473   7.081074  -5.089897 -46.439091 -179.746606 -81.875917 -179.747471   1.600375  -7.664622  13.828599 -31.019173 -12.703486   1.046868  50.305559   0.019818   0.024945 -31.063284 -16.147857 -14.001901  -2.255569   0.001500  -0.003666   2.528838   1.049919   1.720929  66.698782  -0.085437  -0.021054   2.082748   3.275812  -0.736623 -14.043089  -0.057795  -0.017397
 -0.218992   0.822443   3.463758  -0.356134 -21.986864  11.503212  13.570488  -4.683248  -3.226996   0.282389  -4.510446   2.152262  -8.647321 -10.096424   0.944280   6.622539  -8.504068   4.495628  17.224180  -4.389658  50.975380  -0.007085  84.838612   0.011616  -0.368137   2.884426 -16.234858   5.891593   6.727570  -1.790385   8.592250  -4.619879 -46.479491 -179.605166 -83.760034 -179.604855   1.704288  -7.901390  13.720148 -29.804760 -12.252487   2.051343  51.267843   0.014634   0.018307 -31.686007 -15.466581 -14.855222  -1.838168   0.004968  -0.000343   0.894895   1.083090   2.302975  69.481189  -0.091828  -0.016808   1.150340   3.720049  -0.522087 -12.944447  -0.057813  -0.012673
 -0.227005   0.820324   3.478892  -0.551914 -23.016581  11.081254  13.695654  -4.367484  -3.092778   0.493003  -4.134086   2.410812  -8.628700 -10.182166   1.123985   6.244498  -7.925182   4.771889  16.209113  -3.712603  50.746797  -0.004214  84.974299   0.008344  -0.407700   2.702116 -15.870463   6.352626   7.030620  -2.087950  10.080755  -4.145749 -46.523657 -179.358377 -85.597564 -179.356412   1.713018  -7.738328  13.412233 -28.360175 -11.775330   3.009858  51.859440   0.010934   0.013652 -32.324365 -14.835487 -15.580846  -1.592765   0.005838   0.001033  -0.954035   1.041287   2.840005  72.012813  -0.094361  -0.013008   0.268083   4.134584  -0.310156 -11.990785  -0.055740  -0.009071
 -0.235134   0.818672   3.493853  -0.779248 -24.043326  10.710148  13.850829  -4.016397  -3.019384   0.738460  -3.720596   2.611626  -8.596453 -10.263964   1.287384   5.866658  -7.355075   5.021325  15.243028  -3.054762  50.544247  -0.001070  85.120216   0.004779  -0.415055   2.635850 -15.477574   6.823440   7.345117  -2.372771  11.506370  -3.685104 -46.579188 -178.873477 -87.328914 -178.869775   1.686220  -7.425963  13.015608 -26.794986 -11.272833   3.862600  52.229648   0.008199   0.010146 -32.949704 -14.234187 -16.243450  -1.378810   0.006172   0.001775  -2.944195   0.984571   3.301909  74.297964  -0.093551  -0.009709  -0.562978   4.517038  -0.104902 -11.135534  -0.052459  -0.006294
 -0.243357   0.817243   3.508794  -1.035664 -25.060392  10.382012  14.013531  -3.635990  -2.988384   0.996414  -3.281103   2.760397  -8.557613 -10.339577   1.435586   5.505290  -6.812994   5.230092  14.335705  -2.433707  50.354329   0.001782  85.267269   0.001467  -0.403488   2.635037 -15.095141   7.290031   7.670939  -2.640298  12.860587  -3.238644 -46.643306 -177.115652 -88.948834 -177.110453   1.650607  -7.074368  12.606283 -25.149199 -10.749513   4.604587  52.458385   0.006193   0.007554 -33.549598 -13.663363 -16.850559  -1.187214   0.006210   0.002137  -5.013715   0.917976   3.706029  76.365467  -0.090443  -0.006897  -1.345059   4.869738   0.092586 -10.365853  -0.048496  -0.004146
